<svg width="38" height="38" viewBox="0 0 38 38" fill="none" xmlns="http://www.w3.org/2000/svg">
<circle cx="19" cy="19" r="17" fill="#0BCAD4" stroke="white" stroke-width="4"/>
<path d="M23 18.74C23.2787 18.74 23.506 18.8353 23.682 19.026C23.8727 19.202 23.968 19.4293 23.968 19.708C23.968 19.9867 23.8727 20.2213 23.682 20.412C23.506 20.588 23.2787 20.676 23 20.676H19.568V24.086C19.568 24.3647 19.4727 24.5993 19.282 24.79C19.106 24.9807 18.8787 25.076 18.6 25.076C18.3213 25.076 18.0867 24.9807 17.896 24.79C17.72 24.5993 17.632 24.3647 17.632 24.086V20.676H14.2C13.9213 20.676 13.6867 20.588 13.496 20.412C13.32 20.2213 13.232 19.9867 13.232 19.708C13.232 19.4293 13.32 19.202 13.496 19.026C13.6867 18.8353 13.9213 18.74 14.2 18.74H17.632V15.308C17.632 15.0293 17.72 14.802 17.896 14.626C18.0867 14.4353 18.3213 14.34 18.6 14.34C18.8787 14.34 19.106 14.4353 19.282 14.626C19.4727 14.802 19.568 15.0293 19.568 15.308V18.74H23Z" fill="white"/>
</svg>
