<svg width="20" height="20" viewBox="0 0 20 20" fill="none" xmlns="http://www.w3.org/2000/svg">
<path fill-rule="evenodd" clip-rule="evenodd" d="M20 10C20 15.52 15.52 20 10 20C4.48 20 0 15.52 0 10C0 4.48 4.48 0 10 0C15.52 0 20 4.48 20 10ZM7 12.25C7.69 12.25 8.25 11.69 8.25 11C8.25 10.31 7.69 9.75 7 9.75C6.31 9.75 5.75 10.31 5.75 11C5.75 11.69 6.31 12.25 7 12.25ZM11.75 11C11.75 10.31 12.31 9.75 13 9.75C13.69 9.75 14.25 10.31 14.25 11C14.25 11.69 13.69 12.25 13 12.25C12.31 12.25 11.75 11.69 11.75 11ZM15.5 6C12.6 6 10.06 4.44 8.66 2.12C9.09 2.05 9.54 2 10 2C12.9 2 15.44 3.56 16.84 5.88C16.41 5.95 15.96 6 15.5 6ZM2.42 7.46997C4.13 6.49997 5.45 4.91997 6.08 3.02997C4.37 3.99997 3.05 5.57997 2.42 7.46997ZM17.67 7.76C17.88 8.47 18 9.22 18 10C18 14.41 14.41 18 10 18C5.59 18 2 14.41 2 10C2 9.98294 2.00116 9.96589 2.0023 9.94923C2.00449 9.91705 2.00659 9.88635 2 9.86C4.6 8.88 6.69 6.87 7.74 4.31C9.58 6.56 12.37 8 15.5 8C16.25 8 16.97 7.91 17.67 7.76Z" fill="#495A75"/>
</svg>
