<svg width="46" height="46" viewBox="0 0 46 46" fill="none" xmlns="http://www.w3.org/2000/svg">
<mask id="mask0" mask-type="alpha" maskUnits="userSpaceOnUse" x="0" y="0" width="46" height="46">
<circle cx="23" cy="23" r="23" fill="#0BCAD4"/>
</mask>
<g mask="url(#mask0)">
<circle cx="23" cy="23" r="23" fill="#0BCAD4"/>
<ellipse cx="23" cy="35.5" rx="9" ry="2.5" fill="#0AA8B0"/>
<path d="M21.7154 12.3532C18.5779 9.2156 13.4908 9.2156 10.3532 12.3532C7.21561 15.4908 7.21561 20.5778 10.3532 23.7155L11.6377 25L23 36.3623L23.8336 23.7493L23 13.6377L21.7154 12.3532Z" fill="#E06379"/>
<path d="M35.6468 12.3532C32.5092 9.21561 27.4221 9.21561 24.2845 12.3532L23 13.6377V36.3623L34.3623 25L35.6468 23.7154C38.7844 20.5779 38.7844 15.4908 35.6468 12.3532Z" fill="#C63C50"/>
<path d="M19.7923 23.578C18.5293 24.8411 18.5293 26.8889 19.7923 28.1521C20.6606 29.0204 21.8998 29.2918 23 28.9662L23.7685 24.7349L23 20.3704L19.7923 23.578Z" fill="#F6DCCD"/>
<path d="M32.8161 15.1282C31.553 13.8652 29.5052 13.8652 28.2421 15.1282L23 20.3704V28.9662C23.5002 28.8182 23.9715 28.5469 24.3663 28.152L32.8162 19.7022C34.0792 18.4392 34.0792 16.3913 32.8161 15.1282Z" fill="#F1CBBC"/>
<path d="M21.7302 21.6401L23 22.9099L23.6597 21.6402L23 20.3704L21.7302 21.6401Z" fill="#EEBCA8"/>
<path d="M30.8782 21.6401L26.3042 17.0662L23 20.3704V22.9099L26.3042 26.2141L30.8782 21.6401Z" fill="#E9A48C"/>
</g>
</svg>
