<svg width="46" height="46" viewBox="0 0 46 46" fill="none" xmlns="http://www.w3.org/2000/svg">
<mask id="mask0" mask-type="alpha" maskUnits="userSpaceOnUse" x="0" y="0" width="46" height="46">
<circle cx="23" cy="23" r="23" fill="#0BCAD4"/>
</mask>
<g mask="url(#mask0)">
<circle cx="23" cy="23" r="23" fill="#0BCAD4"/>
<ellipse cx="17" cy="33.5" rx="9" ry="2.5" fill="#0AA8B0"/>
<path d="M21.2156 18.9339L20.9753 19.1741L19.7789 24.7536L17.2761 27.2564L18.5981 29.402L26.0661 22.5797L21.2156 18.9339Z" fill="#D5E7FF"/>
<path d="M29.0662 26.7845L25.7432 22.2568L18.5981 29.402L20.7436 30.724L23.2464 28.2211L28.8259 27.0247L29.0662 26.7845Z" fill="#ACCEFF"/>
<path d="M19.3327 29.313L17.2761 27.2564L14.7182 29.8143C13.7606 30.7719 13.7606 32.3243 14.7182 33.2818L19.3327 29.313Z" fill="#6B66D0"/>
<path d="M20.7436 30.724L19.0099 28.9902L14.7182 33.2819C15.6757 34.2394 17.2281 34.2394 18.1857 33.2819L20.7436 30.724Z" fill="#524798"/>
<path d="M42.3741 5.62593C40.2062 3.45808 36.6914 3.45808 34.5235 5.62593L33.4467 6.70265L37.0242 11.6215L42.3741 5.62593Z" fill="#D5E7FF"/>
<path d="M42.3741 5.62593L36.7523 11.2477L41.2974 14.5533L42.3741 13.4766C44.542 11.3086 44.542 7.79384 42.3741 5.62593Z" fill="#ACCEFF"/>
<path d="M21.214 18.9337L33.4433 6.70441L37.6908 10.9519L25.4615 23.1813L21.214 18.9337Z" fill="#EAF1FF"/>
<path d="M25.1385 22.859L37.3678 10.6297L41.2925 14.5544L29.0632 26.7838L25.1385 22.859Z" fill="#D5E7FF"/>
<path d="M25.4123 19.3942L32.8559 11.9506L34.652 13.7467L27.2084 21.1903L25.4123 19.3942Z" fill="#D5E7FF"/>
<path d="M27.0076 20.9897L34.4512 13.5462L36.0465 15.1415L28.6029 22.5851L27.0076 20.9897Z" fill="#ACCEFF"/>
<path d="M35.594 8.84994C34.612 9.83192 34.612 11.4241 35.594 12.4061L37.6949 10.9509L39.1502 8.84994C38.1681 7.86791 36.576 7.86791 35.594 8.84994Z" fill="#E06379"/>
<path d="M39.1501 8.84993L35.594 12.406C36.576 13.388 38.1681 13.388 39.1501 12.406C40.1321 11.424 40.1321 9.8319 39.1501 8.84993Z" fill="#C63C50"/>
</g>
</svg>
